HIERARCHY
ROOT joint_Root
{
	OFFSET 0.0 0.0 0.0
	CHANNELS 6 Xposition Yposition Zposition Zrotation Xrotation Yrotation 
	JOINT Hips
	{
		OFFSET -0.726466 93.3139 -2.00062
		CHANNELS 6 Xposition Yposition Zposition Zrotation Xrotation Yrotation 
		JOINT Spine
		{
			OFFSET 15.7357 0.0 0.0
			CHANNELS 6 Xposition Yposition Zposition Zrotation Xrotation Yrotation 
			JOINT Chest
			{
				OFFSET 8.98455 -0.406207 0.0
				CHANNELS 6 Xposition Yposition Zposition Zrotation Xrotation Yrotation 
				JOINT Neck
				{
					OFFSET 16.3773 0.0 0.0
					CHANNELS 6 Xposition Yposition Zposition Zrotation Xrotation Yrotation 
					JOINT Head
					{
						OFFSET 6.45672 0.0 0.0
						CHANNELS 6 Xposition Yposition Zposition Zrotation Xrotation Yrotation 
						End Site
						{
							OFFSET 0.0 0.0 0.0
						}
					}
				}
				JOINT Shoulder_L
				{
					OFFSET 12.9942 -0.242716 4.98039
					CHANNELS 6 Xposition Yposition Zposition Zrotation Xrotation Yrotation 
					JOINT UpperArm_L
					{
						OFFSET 5.34809 0.0 0.0
						CHANNELS 6 Xposition Yposition Zposition Zrotation Xrotation Yrotation 
						JOINT LowerArm_L
						{
							OFFSET 24.3286 1.87007e-05 0.0
							CHANNELS 6 Xposition Yposition Zposition Zrotation Xrotation Yrotation 
							JOINT Hand_L
							{
								OFFSET 22.2916 0.0 0.0
								CHANNELS 6 Xposition Yposition Zposition Zrotation Xrotation Yrotation 
								End Site
								{
									OFFSET 0.0 0.0 0.0
								}
							}
						}
					}
				}
				JOINT Shoulder_R
				{
					OFFSET 12.9945 -0.242716 -4.98039
					CHANNELS 6 Xposition Yposition Zposition Zrotation Xrotation Yrotation 
					JOINT UpperArm_R
					{
						OFFSET -5.34813 0.0 0.0
						CHANNELS 6 Xposition Yposition Zposition Zrotation Xrotation Yrotation 
						JOINT LowerArm_R
						{
							OFFSET -24.3289 0.000322201 0.0
							CHANNELS 6 Xposition Yposition Zposition Zrotation Xrotation Yrotation 
							JOINT Hand_R
							{
								OFFSET -22.2915 -0.000108084 0.0
								CHANNELS 6 Xposition Yposition Zposition Zrotation Xrotation Yrotation 
								End Site
								{
									OFFSET 0.0 0.0 0.0
								}
							}
						}
					}
				}
			}
		}
		JOINT UpperLeg_L
		{
			OFFSET -2.19248 -6.46944 0.0
			CHANNELS 6 Xposition Yposition Zposition Zrotation Xrotation Yrotation 
			JOINT LowerLeg_L
			{
				OFFSET 39.0811 0.0 -1.23785e-05
				CHANNELS 6 Xposition Yposition Zposition Zrotation Xrotation Yrotation 
				JOINT Foot_L
				{
					OFFSET 40.9854 0.0 -1.26872e-05
					CHANNELS 6 Xposition Yposition Zposition Zrotation Xrotation Yrotation 
					JOINT Toes_L
					{
						OFFSET 11.7543 0.0 0.0
						CHANNELS 6 Xposition Yposition Zposition Zrotation Xrotation Yrotation 
						End Site
						{
							OFFSET 0.0 0.0 0.0
						}
					}
				}
			}
		}
		JOINT UpperLeg_R
		{
			OFFSET -2.19251 6.46944 0.0
			CHANNELS 6 Xposition Yposition Zposition Zrotation Xrotation Yrotation 
			JOINT LowerLeg_R
			{
				OFFSET -39.0811 -0.00228153 -0.0401928
				CHANNELS 6 Xposition Yposition Zposition Zrotation Xrotation Yrotation 
				JOINT Foot_R
				{
					OFFSET -40.9854 0.0 0.0
					CHANNELS 6 Xposition Yposition Zposition Zrotation Xrotation Yrotation 
					JOINT Toes_R
					{
						OFFSET -11.7543 0.0 0.0
						CHANNELS 6 Xposition Yposition Zposition Zrotation Xrotation Yrotation 
						End Site
						{
							OFFSET 0.0 0.0 0.0
						}
					}
				}
			}
		}
	}
}
MOTION
Frames:	6
Frame Time:	0.0333333
0.000000 0.000000 0.000000 0.000000 0.000000 -0.000000 -0.394995 92.051800 0.869226 87.930400 -1.804070 6.233990 15.735700 0.000005 -0.000001 83.004200 86.026600 -82.324300 8.984550 -0.406207 -0.000000 0.128156 -1.012960 1.360080 16.377300 -0.000001 -0.000001 6.707410 -2.042990 0.095339 6.456720 -0.000001 -0.000000 8.536110 -3.000890 -1.333810 12.994200 -0.242716 4.980390 -86.366300 -10.309700 -70.463200 5.348090 -0.000007 -0.000001 -83.961700 -23.991500 -96.325000 24.328600 0.000019 0.000005 13.012000 2.690780 -78.516700 22.291600 -0.000001 0.000005 21.446300 5.582900 -10.368600 12.994500 -0.242716 -4.980390 91.595300 -5.066440 -72.496600 -5.348130 -0.000001 -0.000004 -74.687900 -22.882400 -104.026000 -24.328900 0.000322 -0.000009 12.482100 4.949780 -68.707900 -22.291500 -0.000108 -0.000004 22.476400 5.468390 -5.310370 -2.192480 -6.469440 -0.000000 -174.724000 -9.499950 0.414976 39.081100 -0.000007 -0.000012 -0.125140 0.284740 23.725000 40.985400 -0.000006 -0.000013 0.006852 3.908530 -67.907900 11.754300 -0.000000 0.000003 -0.000048 -0.000547 -16.598800 -2.192510 6.469440 -0.000001 178.790000 14.565600 -176.970000 -39.081100 -0.002282 -0.040193 -0.042698 0.125823 20.089700 -40.985400 0.000008 0.000006 3.254800 8.267230 -67.170000 -11.754300 -0.000006 -0.000006 -0.008157 -0.089313 -20.210100
0.000000 0.000000 0.000000 0.000000 0.000000 -0.000000 -0.423348 92.060500 0.876896 87.958600 -1.786900 6.180190 15.735700 0.000005 -0.000001 82.872000 86.017400 -82.216200 8.984550 -0.406207 -0.000000 0.144008 -1.031720 1.312120 16.377300 -0.000001 -0.000001 6.568720 -2.058080 0.090742 6.456720 -0.000001 -0.000000 8.389070 -2.988430 -1.389990 12.994200 -0.242716 4.980390 -86.374600 -10.246300 -70.394600 5.348090 -0.000007 -0.000001 -83.838900 -23.908500 -96.372300 24.328600 0.000019 0.000005 12.593800 2.543090 -78.767300 22.291600 -0.000001 0.000005 21.492300 5.580910 -10.261200 12.994500 -0.242716 -4.980390 91.585300 -4.977020 -72.306800 -5.348130 -0.000001 -0.000004 -74.344000 -22.980900 -103.888000 -24.328900 0.000322 -0.000009 12.265900 4.914850 -68.494600 -22.291500 -0.000108 -0.000004 22.440100 5.468390 -5.310280 -2.192480 -6.469440 -0.000000 -174.763000 -9.415250 0.407061 39.081100 -0.000007 -0.000012 -0.122272 0.279406 23.635000 40.985400 -0.000006 -0.000013 -0.021843 3.863250 -67.867200 11.754300 -0.000000 0.000003 -0.000047 -0.000536 -16.598400 -2.192510 6.469440 -0.000001 178.810000 14.543800 -177.006000 -39.081100 -0.002282 -0.040193 -0.040976 0.121298 20.061800 -40.985400 0.000008 0.000006 3.381920 8.227000 -67.188200 -11.754300 -0.000006 -0.000006 -0.008084 -0.088719 -20.185900
0.000000 0.000000 0.000000 0.000000 0.000000 -0.000000 -0.451253 92.066600 0.865369 87.932300 -1.752180 6.063340 15.735700 0.000005 -0.000001 82.609700 86.026300 -81.954700 8.984550 -0.406207 -0.000000 0.121834 -1.065650 1.310240 16.377300 -0.000001 -0.000001 6.432240 -2.041790 0.013302 6.456720 -0.000001 -0.000000 8.383980 -2.945500 -1.335750 12.994200 -0.242716 4.980390 -86.399700 -10.084900 -70.235700 5.348090 -0.000007 -0.000001 -83.447200 -23.694400 -95.899100 24.328600 0.000019 0.000005 11.689900 2.196830 -79.505200 22.291600 -0.000001 0.000005 21.419500 5.578100 -10.110300 12.994500 -0.242716 -4.980390 91.547700 -4.825070 -72.191300 -5.348130 -0.000001 -0.000004 -73.512500 -23.282600 -103.097000 -24.328900 0.000322 -0.000009 12.170400 4.767160 -68.928500 -22.291500 -0.000108 -0.000004 22.411100 5.463220 -5.118670 -2.192480 -6.469440 -0.000000 -174.742000 -9.332420 0.279569 39.081100 -0.000007 -0.000012 -0.126429 0.289084 23.622000 40.985400 -0.000006 -0.000013 -0.063825 3.805590 -67.844400 11.754300 -0.000000 0.000003 -0.000052 -0.000587 -16.600300 -2.192510 6.469440 -0.000001 178.899000 14.590100 -177.112000 -39.081100 -0.002282 -0.040193 -0.037218 0.111314 20.011300 -40.985400 0.000008 0.000006 3.426890 8.207020 -67.161600 -11.754300 -0.000006 -0.000006 -0.007926 -0.087431 -20.133300
0.000000 0.000000 0.000000 0.000000 0.000000 -0.000000 -0.459876 92.076800 0.869894 87.957700 -1.729810 6.014090 15.735700 0.000005 -0.000001 82.832500 86.006300 -82.193600 8.984550 -0.406207 -0.000000 0.165245 -1.038700 1.278610 16.377300 -0.000001 -0.000001 6.147940 -2.072200 0.056360 6.456720 -0.000001 -0.000000 8.524470 -2.942120 -1.412860 12.994200 -0.242716 4.980390 -86.455800 -9.767290 -69.943000 5.348090 -0.000007 -0.000001 -82.475200 -23.291800 -94.472700 24.328600 0.000019 0.000005 10.559700 1.675680 -81.086900 22.291600 -0.000001 0.000005 21.233600 5.573530 -9.870530 12.994500 -0.242716 -4.980390 91.449100 -4.443410 -71.916800 -5.348130 -0.000001 -0.000004 -71.984700 -23.589500 -101.416000 -24.328900 0.000322 -0.000009 12.074800 4.382290 -70.347300 -22.291500 -0.000108 -0.000004 22.290500 5.447130 -4.535930 -2.192480 -6.469440 -0.000000 -174.770000 -9.353230 0.268696 39.081100 -0.000007 -0.000012 -0.124068 0.284851 23.535800 40.985400 -0.000006 -0.000013 -0.049571 3.877280 -67.799400 11.754300 -0.000000 0.000003 -0.000044 -0.000504 -16.597200 -2.192510 6.469440 -0.000001 178.919000 14.584100 -177.158000 -39.081100 -0.002282 -0.040193 -0.032737 0.099056 20.002800 -40.985400 0.000008 0.000006 3.654120 8.132280 -67.199300 -11.754300 -0.000006 -0.000006 -0.008101 -0.088852 -20.191300
0.000000 0.000000 0.000000 0.000000 0.000000 -0.000000 -0.466488 92.079500 0.855715 87.976700 -1.626010 5.956230 15.735700 0.000005 -0.000001 82.753500 85.986000 -82.134200 8.984550 -0.406207 -0.000000 0.203994 -1.053210 1.239810 16.377300 -0.000001 -0.000001 5.939240 -2.131530 0.122464 6.456720 -0.000001 -0.000000 8.522690 -2.889700 -1.443400 12.994200 -0.242716 4.980390 -86.573100 -9.200410 -69.467200 5.348090 -0.000007 -0.000001 -80.522800 -22.536700 -91.596400 24.328600 0.000019 0.000005 9.460680 1.042440 -83.771900 22.291600 -0.000001 0.000005 21.167500 5.569620 -9.669030 12.994500 -0.242716 -4.980390 91.298900 -3.901770 -71.571000 -5.348130 -0.000001 -0.000004 -69.579800 -23.749000 -98.158000 -24.328900 0.000322 -0.000009 11.713100 3.537020 -73.433600 -22.291500 -0.000108 -0.000004 22.113800 5.418930 -3.562900 -2.192480 -6.469440 -0.000000 -174.816000 -9.245360 0.185405 39.081100 -0.000007 -0.000012 -0.123473 0.283647 23.523900 40.985400 -0.000006 -0.000013 -0.061461 3.835130 -67.772100 11.754300 -0.000000 0.000003 -0.000052 -0.000584 -16.600200 -2.192510 6.469440 -0.000001 178.911000 14.667900 -177.208000 -39.081100 -0.002282 -0.040193 -0.031957 0.096918 20.001500 -40.985400 0.000008 0.000006 3.704390 8.103190 -67.215200 -11.754300 -0.000006 -0.000006 -0.008259 -0.090136 -20.243800
0.000000 0.000000 0.000000 0.000000 0.000000 -0.000000 -0.462145 92.068000 0.870822 87.951300 -1.506270 5.894100 15.735700 0.000005 -0.000001 83.170500 85.997800 -82.571500 8.984550 -0.406207 -0.000000 0.187143 -0.991197 1.198860 16.377300 -0.000001 -0.000001 5.861980 -2.231770 0.321216 6.456720 -0.000001 -0.000000 8.617440 -2.901160 -1.496720 12.994200 -0.242716 4.980390 -86.780000 -8.501820 -69.166500 5.348090 -0.000007 -0.000001 -77.344800 -21.303500 -86.728900 24.328600 0.000019 0.000005 8.853750 0.373804 -87.603400 22.291600 -0.000001 0.000005 21.318400 5.576520 -10.026900 12.994500 -0.242716 -4.980390 91.105600 -3.279200 -71.355600 -5.348130 -0.000001 -0.000004 -66.353500 -23.642700 -92.787300 -24.328900 0.000322 -0.000009 11.048300 2.288400 -78.448300 -22.291500 -0.000108 -0.000004 21.544200 5.396100 -2.810470 -2.192480 -6.469440 -0.000000 -174.785000 -9.276050 0.060360 39.081100 -0.000007 -0.000012 -0.124473 0.284502 23.630000 40.985400 -0.000006 -0.000013 -0.024462 3.984690 -67.821600 11.754300 -0.000000 0.000003 -0.000054 -0.000607 -16.601100 -2.192510 6.469440 -0.000001 178.928000 14.725200 -177.268000 -39.081100 -0.002282 -0.040193 -0.037714 0.112677 20.010900 -40.985400 0.000008 0.000006 3.472160 8.097260 -67.186800 -11.754300 -0.000006 -0.000006 -0.008034 -0.088306 -20.169000
